<svg width="20" height="18" viewBox="0 0 20 18" fill="none" xmlns="http://www.w3.org/2000/svg">
<path d="M17.2727 17.0839C17.2727 17.3269 17.177 17.5599 17.0065 17.7317C16.836 17.9035 16.6047 18 16.3636 18H3.63636C3.39526 18 3.16403 17.9035 2.99354 17.7317C2.82305 17.5599 2.72727 17.3269 2.72727 17.0839V8.83893H0L9.38818 0.238515C9.55556 0.0850471 9.77371 0 10 0C10.2263 0 10.4444 0.0850471 10.6118 0.238515L20 8.83893H17.2727V17.0839ZM7.27273 7.92282V13.4195H12.7273V7.92282H7.27273ZM9.09091 9.75504H10.9091V11.5873H9.09091V9.75504Z" fill="#4E33FF"/>
</svg>
